<?xml version="1.0" encoding="UTF-8"?>
<svg width="28px" height="52px" viewBox="0 0 28 52" version="1.1" xmlns="http://www.w3.org/2000/svg" xmlns:xlink="http://www.w3.org/1999/xlink">
    <!-- Generator: Sketch 49.3 (51167) - http://www.bohemiancoding.com/sketch -->
    <title>003-signal</title>
    <desc>Created with Sketch.</desc>
    <defs></defs>
    <g id="Page-1" stroke="none" stroke-width="1" fill="none" fill-rule="evenodd">
        <g id="1440---Кафедра" transform="translate(-166.000000, -143.000000)" fill="#127ED4" fill-rule="nonzero">
            <g id="Group-3" transform="translate(166.000000, 138.000000)">
                <g id="003-signal" transform="translate(0.000000, 5.000000)">
                    <path d="M25.9590413,50.7050215 L21.9051526,36.8333687 C21.9049523,36.8325644 21.9046518,36.83176 21.9044515,36.8308552 L20.457836,31.8809808 C20.4577358,31.8804781 20.4575355,31.8799754 20.4574353,31.8795733 L18.4584357,25.0394124 C18.4580351,25.0381053 18.4577346,25.0367983 18.4573339,25.0355918 L15.2768432,14.1525443 C16.6768841,13.6304307 17.6771852,12.2760319 17.6771852,10.6911914 C17.6771852,8.65582305 16.0275448,7 13.9999994,7 C11.9724541,7 10.3228137,8.65592359 10.3228137,10.6911914 C10.3228137,12.2760319 11.3231148,13.6305312 12.7231557,14.1525443 L6.09554741,36.8310562 C6.09534709,36.8318606 6.09504661,36.8326649 6.09484629,36.8335698 L2.04095755,50.705122 C1.88450713,51.2404066 2.1899961,51.8017316 2.72324964,51.9588784 C3.2572043,52.1158242 3.81569824,51.8092722 3.97224881,51.2738871 L4.58863542,49.164721 L14.0000996,42.9243926 L23.4115638,49.164721 L24.0279504,51.2738871 C24.1566564,51.7143607 24.5579988,52 24.9932955,52 C25.0870456,52 25.1824984,51.9867285 25.2769496,51.9588784 C25.8100028,51.8017316 26.1154918,51.2404066 25.9590413,50.7050215 Z M12.3354351,10.6909903 C12.3354351,9.76972574 13.0821303,9.02018656 13.9998993,9.02018656 C14.9176683,9.02018656 15.6643635,9.76972574 15.6643635,10.6909903 C15.6643635,11.6122549 14.9176683,12.3617941 13.9998993,12.3617941 C13.0821303,12.3617941 12.3354351,11.6123555 12.3354351,10.6909903 Z M13.9998993,16.9608781 L16.1525449,24.3270737 L11.8471536,24.3270737 L13.9998993,16.9608781 Z M11.2567085,26.3474613 L16.7430901,26.3474613 L18.1524459,31.1702508 L9.84735263,31.1702508 L11.2567085,26.3474613 Z M5.46624013,46.1612355 L7.64392578,38.709881 L12.1740768,41.7135676 L5.46624013,46.1612355 Z M8.23667454,36.6815506 L9.25690755,33.1906384 L18.7429912,33.1906384 L19.7632242,36.6815506 L13.9998993,40.5029436 L8.23667454,36.6815506 Z M15.8258219,41.7136681 L20.3559729,38.7099816 L22.5336586,46.1613361 L15.8258219,41.7136681 Z" id="Shape"></path>
                    <path d="M8.72482227,5.71740621 C9.09172591,5.32450147 9.09172591,4.68748315 8.72482227,4.29467855 C8.35791864,3.90177382 7.76314951,3.90177382 7.39615237,4.29467855 C4.20126696,7.71627398 4.20126696,13.283726 7.39624588,16.7053215 C7.57969769,16.9017738 7.82009251,17 8.06058083,17 C8.30097564,17 8.54137045,16.9016737 8.72482227,16.7053215 C9.09172591,16.3124167 9.09172591,15.6753984 8.72482227,15.2825938 C6.26215459,12.6455062 6.26215459,8.35449385 8.72482227,5.71740621 Z" id="Shape"></path>
                    <path d="M19.603782,4.29468082 C19.2368934,3.90177306 18.6422421,3.90177306 18.2751665,4.29468082 C17.9082778,4.68758858 17.9082778,5.32461181 18.2751665,5.71741943 C20.7376399,8.35452739 20.7376399,12.6455727 18.2751665,15.2826807 C17.9083713,15.6753882 17.9083713,16.3125116 18.27526,16.7053192 C18.4587043,16.9017731 18.6990893,17 18.9395677,17 C19.1800462,17 19.4203377,16.9016729 19.6038755,16.7053192 C22.7987237,13.2836974 22.7987237,7.71620248 19.603782,4.29468082 Z" id="Shape"></path>
                    <path d="M5.69453715,1.78069568 C6.10168261,1.37331171 6.10168261,0.71281813 5.69453715,0.305537978 C5.2873917,-0.101845993 4.62738859,-0.101845993 4.22013938,0.305537978 C1.49878085,3.02859459 0,6.64895489 0,10.5 C0,14.3509413 1.49878085,17.9714054 4.22013938,20.694462 C4.42381586,20.898154 4.69047331,21 4.95744203,21 C5.22441074,21 5.49096443,20.8980502 5.69464091,20.694462 C6.10178636,20.2870781 6.10178636,19.6265845 5.69464091,19.2193043 C0.889411521,14.4113637 0.889411521,6.5885325 5.69453715,1.78069568 Z" id="Shape"></path>
                    <path d="M25.8682441,2.48150857 C25.5662564,2.00560441 24.923884,1.85731252 24.4335432,2.15047109 C23.94341,2.4437304 23.7907557,3.06722127 24.0926396,3.54312542 C27.0969499,8.27738452 26.3619057,14.3341817 22.3054123,18.2719763 C21.8981959,18.667287 21.8981959,19.3082062 22.3054123,19.7035169 C22.5090204,19.9011723 22.7758281,20 23.0427395,20 C23.3095472,20 23.5763549,19.9011723 23.7800668,19.7035169 C26.0861733,17.4647324 27.5538749,14.5021182 27.9127317,11.3614933 C28.2658808,8.26952667 27.5398651,5.11580532 25.8682441,2.48150857 Z" id="Shape"></path>
                    <path d="M23,0 C21.6677488,0 21.665585,2 23,2 C24.3322512,2 24.334415,0 23,0 Z" id="Shape"></path>
                </g>
            </g>
        </g>
    </g>
</svg>