<svg xmlns="http://www.w3.org/2000/svg" xmlns:xlink="http://www.w3.org/1999/xlink" width="59" height="39" viewBox="0 0 59 39"><defs><path id="i4t8a" d="M747.47 1345.54l-7.91 8.77-3.6-3.32a52.88 52.88 0 0 0-4.22-3.46l-5.13-3.69a5.17 5.17 0 0 0-2.98-.89c-.9 0-1.8.2-2.58.66l-1.85 1.12a2 2 0 0 1-2.56-.5l-.41-.55a1.6 1.6 0 0 1 .36-2.27l5.48-3.87a3.85 3.85 0 0 1 2.12-.58c.56 0 1.1.11 1.46.3l4.46 2.16c.76.37 1.62.52 2.48.52a6.1 6.1 0 0 0 3.16-.82l4.56-2.84a2.02 2.02 0 0 1 2.59.46l4.67 6c.27.34.43.82.43 1.33 0 .56-.2 1.11-.53 1.47zm-6.4 13.64c0 .42-.15.82-.44 1.14l-.47.5c-.33.35-.77.53-1.23.53-.41 0-.81-.14-1.13-.44l-7.9-7.33-1.37 1.47 8.46 7.85a1.67 1.67 0 0 1 .08 2.36l-.46.5a1.67 1.67 0 0 1-2.36.1l-7.9-7.33-1.37 1.47 7.01 6.5c.34.32.51.75.51 1.2 0 .41-.14.81-.44 1.13l-.47.5a1.67 1.67 0 0 1-2.36.09l-7-6.47-1.36 1.46.03.03 3.5 3.24a1.65 1.65 0 0 1 .03 2.29l-.47.5a1.66 1.66 0 0 1-2.36.09l-3.05-2.84c.27-.52.42-1.09.42-1.65 0-.97-.39-1.94-1.14-2.66l-.5-.48a3.67 3.67 0 0 0-2.54-1l-.2.01v-.05c0-.96-1.14-2.66-1.14-2.66l-.5-.47a3.66 3.66 0 0 0-1.85-.95 3.66 3.66 0 0 0-.92-3.87l-.5-.47a3.68 3.68 0 0 0-2.53-1.01l-.32.03a3.66 3.66 0 0 0-1.12-2.55l-.5-.47a3.67 3.67 0 0 0-5.2.12l-1.18 1.24-5.25-4.49a1.61 1.61 0 0 1-.16-2.3l5.54-6.23c.22-.25.54-.47.93-.63.38-.15.8-.24 1.21-.24.36 0 .69.07.95.18l3.04 1.3c.86.37 1.85.52 2.85.52s2-.15 2.86-.52l3.04-1.3c.47-.2 1.17-.33 1.88-.33.78 0 1.55.16 2 .4l.82.4-3.1 2.18a3.6 3.6 0 0 0-.82 5.1l.4.55a4 4 0 0 0 5.21 1.03l1.86-1.12c.38-.23.95-.38 1.54-.37.7 0 1.4.2 1.81.5l5.13 3.7c1.14.82 3 2.34 4.03 3.3l5.94 5.5c.35.33.53.77.53 1.22zm-24.56 8.04l-2.83 2.96c-.33.34-.77.5-1.22.5-.42 0-.83-.14-1.15-.45l-.5-.47a1.66 1.66 0 0 1-.06-2.36l2.84-2.96a1.67 1.67 0 0 1 2.37-.06l.5.48c.34.32.5.76.5 1.2 0 .42-.14.83-.45 1.16zm-8.87.51a1.66 1.66 0 0 1-2.36.06l-.5-.48a1.65 1.65 0 0 1-.15-2.25l4.66-4.88a1.65 1.65 0 0 1 2.27.03l.5.47a1.66 1.66 0 0 1 .05 2.36zm-5.48-2.98c-.33.34-.77.51-1.21.51-.42 0-.83-.15-1.16-.45l-.5-.48a1.65 1.65 0 0 1-.51-1.2c0-.43.15-.83.46-1.16 0 0 6.7-6.98 6.75-7.05a1.66 1.66 0 0 1 2.3 0l.5.47a1.66 1.66 0 0 1 .06 2.36zm-4.01-5.23c-.42 0-.84-.15-1.16-.46l-.5-.47a1.65 1.65 0 0 1-.51-1.21c0-.42.15-.83.46-1.15l5.02-5.26c.33-.34.76-.51 1.21-.51.42 0 .83.15 1.15.46l.5.47s.51.76.51 1.21c0 .33-.1.66-.3.94 0 .02-5.41 5.67-5.41 5.67-.29.2-.63.3-.97.3zm51.85-15.45c0-.9-.26-1.81-.85-2.56l-4.67-6a4.02 4.02 0 0 0-5.23-.93l-4.56 2.85c-.48.3-1.3.51-2.1.5-.61 0-1.21-.11-1.6-.3l-4.47-2.18a5.36 5.36 0 0 0-2.33-.49 5.8 5.8 0 0 0-3.27.95l-.52.36-1.78-.88a6.67 6.67 0 0 0-2.9-.6c-.93 0-1.86.14-2.67.49l-3.04 1.3c-.5.22-1.29.36-2.07.35-.78 0-1.56-.13-2.06-.35l-3.04-1.3a4.42 4.42 0 0 0-1.74-.34c-.68 0-1.35.13-1.98.39a4.5 4.5 0 0 0-1.66 1.15l-5.54 6.22a3.6 3.6 0 0 0 .35 5.16l5.17 4.42-2.45 2.57a3.66 3.66 0 0 0 .12 5.18l.5.48c.47.44 1.03.73 1.62.88a3.65 3.65 0 0 0 .68 4.4l.5.47a3.68 3.68 0 0 0 3.97.72c.16.66.5 1.28 1.02 1.78l.5.48a3.68 3.68 0 0 0 4.57.39c.18.58.49 1.13.96 1.57l.5.48a3.67 3.67 0 0 0 5.2-.12l2.16-2.27 2.94 2.73a3.66 3.66 0 0 0 5.2-.19l.47-.5c.4-.44.67-.96.82-1.5l1.14 1.06a3.68 3.68 0 0 0 5.2-.2l.47-.5c.54-.58.84-1.3.93-2.02a3.68 3.68 0 0 0 3.6-1.04l.48-.5a3.66 3.66 0 0 0 .88-3.33c.82-.1 1.6-.47 2.2-1.12l.48-.5a3.67 3.67 0 0 0-.2-5.19l-.87-.81 7.93-8.8a4.2 4.2 0 0 0 1.04-2.81z"/></defs><g><g transform="translate(-691 -1334)"><g><use fill="#117ed4" xlink:href="#i4t8a"/></g></g></g></svg>