<svg xmlns="http://www.w3.org/2000/svg" xmlns:xlink="http://www.w3.org/1999/xlink" width="50" height="55" viewBox="0 0 50 55"><defs><path id="e0v8a" d="M719.5 1142.13a4.64 4.64 0 1 1 0-9.28 4.64 4.64 0 0 1 0 9.28zm0-11.13a6.5 6.5 0 1 0 .01 13.01 6.5 6.5 0 0 0-.01-13.01z"/><path id="e0v8b" d="M728.22 1117.3l-1.67.77c2.29 4.91 3.6 12 3.6 19.43 0 13.91-4.65 25.67-10.15 25.67s-10.15-11.76-10.15-25.67c0-13.91 4.65-25.67 10.1-25.67 1.55.1 2.98.84 3.94 2.06l1.45-1.13A7.29 7.29 0 0 0 720 1110c-6.73 0-12 12.08-12 27.5s5.27 27.5 12 27.5 12-12.08 12-27.5c0-7.8-1.34-14.98-3.78-20.2z"/><path id="e0v8c" d="M743.24 1123.46c-1.66-2.84-5.75-3.99-11.5-3.24-5.49.72-11.93 3.07-18.17 6.62-6.69 3.82-12.39 8.65-15.63 13.25l1.5 1.03c3.1-4.39 8.58-9.03 15.05-12.71 6.03-3.44 12.24-5.7 17.48-6.4 4.9-.64 8.44.22 9.68 2.36 2.72 4.66-5.12 14.38-17.11 21.22-6.03 3.44-12.24 5.71-17.5 6.4-4.9.64-8.42-.22-9.65-2.32a5.11 5.11 0 0 1-.2-4.22l-1.7-.66a6.92 6.92 0 0 0 .3 5.74c1.33 2.28 4.2 3.47 8.26 3.47 1 0 2.09-.07 3.24-.23 5.48-.71 11.93-3.06 18.16-6.62 13.3-7.58 21.11-17.99 17.79-23.69z"/><path id="e0v8d" d="M740.32 1139.11c-3.37-4.34-8.65-8.7-14.88-12.26-13.3-7.6-26.33-9.1-29.66-3.38-1.67 2.84-.64 6.92 2.9 11.49 3.37 4.34 8.65 8.7 14.88 12.26 6.75 3.86 13.88 6.33 19.57 6.78l.14-1.8c-5.43-.43-12.28-2.82-18.8-6.55-6.02-3.45-11.12-7.64-14.34-11.8-3.01-3.88-4.02-7.34-2.77-9.48 2.72-4.67 15.16-2.81 27.16 4.05 6.03 3.45 11.12 7.63 14.35 11.8 3.01 3.88 4.02 7.34 2.8 9.44a5.03 5.03 0 0 1-3.18 2.18l.38 1.77a6.88 6.88 0 0 0 4.35-3c1.67-2.86.64-6.94-2.9-11.5z"/><path id="e0v8e" d="M725.5 1117.25a1.75 1.75 0 1 1 0-3.5 1.75 1.75 0 0 1 0 3.5zm0-5.25a3.5 3.5 0 1 0 0 7 3.5 3.5 0 0 0 0-7z"/><path id="e0v8f" d="M697.5 1144.25a1.75 1.75 0 1 1 0-3.5 1.75 1.75 0 0 1 0 3.5zm0-5.25a3.5 3.5 0 1 0 0 7 3.5 3.5 0 0 0 0-7z"/><path id="e0v8g" d="M735.5 1155.25a1.75 1.75 0 1 1 0-3.5 1.75 1.75 0 0 1 0 3.5zm0-5.25a3.5 3.5 0 1 0 0 7 3.5 3.5 0 0 0 0-7z"/></defs><g><g transform="translate(-694 -1110)"><g><use fill="#117ed4" xlink:href="#e0v8a"/></g><g><use fill="#117ed4" xlink:href="#e0v8b"/></g><g><use fill="#117ed4" xlink:href="#e0v8c"/></g><g><use fill="#117ed4" xlink:href="#e0v8d"/></g><g><use fill="#117ed4" xlink:href="#e0v8e"/></g><g><use fill="#117ed4" xlink:href="#e0v8f"/></g><g><use fill="#117ed4" xlink:href="#e0v8g"/></g></g></g></svg>