<svg xmlns="http://www.w3.org/2000/svg" xmlns:xlink="http://www.w3.org/1999/xlink" width="61" height="61" viewBox="0 0 61 61"><defs><path id="jeipa" d="M747.74 932h-2.02a25.6 25.6 0 0 0 0-2.99h2.02a1.5 1.5 0 0 1 0 2.99zm-27.24 21.97a23.5 23.5 0 0 1-23.48-23.48 23.5 23.5 0 0 1 23.48-23.47 23.5 23.5 0 0 1 23.47 23.47 23.5 23.5 0 0 1-23.47 23.48zm20.3-5.27a1.49 1.49 0 0 1-2.1 2.1l-1.42-1.42a25.5 25.5 0 0 0 2.1-2.1zm-18.8 9.04a1.5 1.5 0 0 1-2.99 0v-2.02a25.6 25.6 0 0 0 2.99 0zm-19.7-6.93a1.49 1.49 0 0 1-2.1-2.1l1.42-1.43a25.5 25.5 0 0 0 2.1 2.1zm-2.1-38.51a1.49 1.49 0 0 1 2.1-2.1l1.42 1.42a25.5 25.5 0 0 0-2.1 2.1zm18.81-9.03a1.5 1.5 0 0 1 2.99 0v2.02a25.5 25.5 0 0 0-2.99 0zm19.7 6.92a1.49 1.49 0 0 1 2.1 2.1l-1.43 1.43a25.5 25.5 0 0 0-2.1-2.1zM695.28 932h-2.02a1.5 1.5 0 0 1 0-2.98h2.02a25.5 25.5 0 0 0 0 2.99zm52.44-4.76h-2.17a25.14 25.14 0 0 0-5.04-12.13l1.55-1.54a3.27 3.27 0 0 0-4.63-4.63l-1.54 1.55a25.14 25.14 0 0 0-12.13-5.04v-2.17a3.27 3.27 0 0 0-6.54 0v2.17a25.14 25.14 0 0 0-12.13 5.04l-1.54-1.55a3.27 3.27 0 0 0-4.63 4.63l1.55 1.54a25.14 25.14 0 0 0-5.04 12.13h-2.17a3.27 3.27 0 0 0 0 6.54h2.17a25.14 25.14 0 0 0 5.04 12.13l-1.55 1.54a3.27 3.27 0 0 0 4.63 4.63l1.54-1.55a25.14 25.14 0 0 0 12.13 5.04v2.17a3.27 3.27 0 0 0 6.54 0v-2.17a25.14 25.14 0 0 0 12.13-5.04l1.54 1.55a3.26 3.26 0 0 0 4.63 0 3.27 3.27 0 0 0 0-4.63l-1.55-1.54a25.14 25.14 0 0 0 5.04-12.13h2.17a3.27 3.27 0 0 0 0-6.54z"/><path id="jeipb" d="M728.97 931.97a8.55 8.55 0 0 0 0-2.95h7.18a15.74 15.74 0 0 1 0 2.95zm4.71 7.1l-5.25-5.25.03-.06h7.43c-.4 1.92-1.17 3.71-2.2 5.3zm-3.17 3.54l-5.07-5.07a8.67 8.67 0 0 0 2.1-2.1l5.07 5.07c-.63.77-1.33 1.47-2.1 2.1zm-6.75 3.28v-7.43l.06-.03 5.24 5.25a15.62 15.62 0 0 1-5.3 2.2zm-1.79.26a15.74 15.74 0 0 1-2.95 0v-7.18a8.55 8.55 0 0 0 2.95 0zm-4.79-7.72l.06.03v7.43c-1.92-.4-3.71-1.17-5.3-2.2zm-8.79 2.08l5.07-5.07a8.67 8.67 0 0 0 2.1 2.1l-5.07 5.07a15.86 15.86 0 0 1-2.1-2.1zm-1.06-1.45a15.62 15.62 0 0 1-2.2-5.3h7.42l.03.06zm-2.55-8.56c0-.5.02-1 .07-1.48h7.18a8.55 8.55 0 0 0 0 2.95h-7.18c-.05-.48-.07-.98-.07-1.47zm2.55-8.56l5.25 5.24-.03.06h-7.43c.4-1.92 1.17-3.71 2.2-5.3zm3.16-3.55l5.07 5.07a8.67 8.67 0 0 0-2.1 2.1l-5.07-5.07c.63-.77 1.33-1.47 2.1-2.1zm6.75-3.27v7.43l-.06.03-5.24-5.25c1.59-1.04 3.38-1.8 5.3-2.2zm1.78-.27a15.74 15.74 0 0 1 2.95 0v7.18a8.55 8.55 0 0 0-2.95 0zm4.8 7.73l-.06-.03v-7.43c1.92.4 3.71 1.17 5.3 2.2zm3.5 7.92a6.83 6.83 0 1 1-13.66-.02 6.83 6.83 0 0 1 13.66.02zm5.29-10.01l-5.07 5.07a8.67 8.67 0 0 0-2.1-2.1l5.07-5.07c.77.63 1.47 1.33 2.1 2.1zm1.07 1.45c1.04 1.59 1.8 3.38 2.2 5.3h-7.42l-.03-.06zM720.5 913c-9.65 0-17.5 7.85-17.5 17.5s7.85 17.5 17.5 17.5 17.5-7.85 17.5-17.5-7.85-17.5-17.5-17.5z"/><path id="jeipc" d="M737.06 941.91l1.38.98c.32-.5.63-1.02.9-1.55l-1.44-.85c-.26.48-.54.96-.84 1.42z"/><path id="jeipd" d="M738.61 939l1.52.71c.7-1.62 1.2-3.33 1.48-5.08l-1.64-.3c-.26 1.6-.72 3.18-1.36 4.67z"/><path id="jeipe" d="M740.24 931c0 .56-.03 1.12-.07 1.67l1.66.15c.05-.6.07-1.21.07-1.82z"/><path id="jeipf" d="M726.11 950.07l.5 1.83a22.08 22.08 0 0 0 4.3-1.77l-.86-1.68a20.25 20.25 0 0 1-3.94 1.62z"/><path id="jeipg" d="M735.63 944.04c-.4.44-.82.88-1.25 1.28l1.25 1.4c.47-.44.93-.9 1.36-1.4z"/><path id="jeiph" d="M731.57 947.54l1 1.6c.54-.36 1.07-.74 1.58-1.14l-1.13-1.51c-.47.37-.96.72-1.45 1.05z"/><path id="jeipi" d="M712.66 949l-.66 1.58c2.55.94 5.24 1.42 8 1.42v-1.7c-2.53 0-5-.43-7.34-1.3z"/><path id="jeipj" d="M700.9 934.07l-1.81.3c.38 2 1.05 3.93 2.01 5.74l1.65-.78a18.63 18.63 0 0 1-1.85-5.26z"/><path id="jeipk" d="M705.7 943.48l-1.39 1.15c.42.45.87.9 1.33 1.31l1.27-1.25c-.42-.39-.83-.8-1.22-1.21z"/><path id="jeipl" d="M703.6 940.79l-1.57.91c.33.52.7 1.02 1.07 1.51l1.49-1.04c-.35-.44-.68-.9-.99-1.38z"/><path id="jeipm" d="M698.1 929.98h1.76c0-.53.03-1.06.07-1.59l-1.75-.14c-.05.57-.08 1.16-.08 1.73z"/><path id="jeipn" d="M700.3 921.05c-.27.52-.52 1.05-.74 1.59l1.64.6c.2-.49.43-.98.68-1.45z"/><path id="jeipo" d="M698.41 926.52l1.74.29c.1-.52.21-1.05.35-1.56l-1.7-.42a19.3 19.3 0 0 0-.39 1.7z"/><path id="jeipp" d="M714.62 909l.52 1.69a21.1 21.1 0 0 1 5.86-.83v-1.76c-2.17 0-4.32.3-6.38.9z"/><path id="jeipq" d="M711.1 910.34l.81 1.58c.52-.25 1.05-.48 1.58-.68l-.67-1.64c-.58.22-1.16.47-1.72.74z"/><path id="jeipr" d="M737.9 917.86l-1.46 1.12c.36.46.7.94 1.01 1.43l1.55-.98c-.34-.54-.71-1.07-1.1-1.57z"/><path id="jeips" d="M735.33 915.06l-1.25 1.34c.42.4.83.8 1.22 1.23l1.36-1.24c-.42-.46-.87-.9-1.33-1.33z"/><path id="jeipt" d="M739.96 921.07l-1.63.85c.84 1.6 1.46 3.29 1.85 5.04l1.8-.4a22.1 22.1 0 0 0-2.02-5.49z"/><path id="jeipu" d="M724.24 931a3.24 3.24 0 0 1-3.24 3.24V936a5 5 0 0 0 5-5z"/><path id="jeipv" d="M715 930h1.76a3.24 3.24 0 0 1 3.24-3.24V925a5 5 0 0 0-5 5z"/></defs><g><g transform="translate(-690 -900)"><g><use fill="#117ed4" xlink:href="#jeipa"/></g><g><use fill="#117ed4" xlink:href="#jeipb"/></g><g><g><use fill="#117ed4" xlink:href="#jeipc"/></g><g><use fill="#117ed4" xlink:href="#jeipd"/></g><g><use fill="#117ed4" xlink:href="#jeipe"/></g></g><g><g><use fill="#117ed4" xlink:href="#jeipf"/></g><g><use fill="#117ed4" xlink:href="#jeipg"/></g><g><use fill="#117ed4" xlink:href="#jeiph"/></g></g><g><use fill="#117ed4" xlink:href="#jeipi"/></g><g><g><use fill="#117ed4" xlink:href="#jeipj"/></g><g><use fill="#117ed4" xlink:href="#jeipk"/></g><g><use fill="#117ed4" xlink:href="#jeipl"/></g></g><g><g><use fill="#117ed4" xlink:href="#jeipm"/></g><g><use fill="#117ed4" xlink:href="#jeipn"/></g><g><use fill="#117ed4" xlink:href="#jeipo"/></g></g><g><g><use fill="#117ed4" xlink:href="#jeipp"/></g><g><use fill="#117ed4" xlink:href="#jeipq"/></g></g><g><g><use fill="#117ed4" xlink:href="#jeipr"/></g><g><use fill="#117ed4" xlink:href="#jeips"/></g><g><use fill="#117ed4" xlink:href="#jeipt"/></g></g><g><use fill="#117ed4" xlink:href="#jeipu"/></g><g><use fill="#117ed4" xlink:href="#jeipv"/></g></g></g></svg>