<svg xmlns="http://www.w3.org/2000/svg" xmlns:xlink="http://www.w3.org/1999/xlink" width="58" height="58" viewBox="0 0 58 58"><defs><path id="wfz0a" d="M310 909a1 1 0 0 1 1-1h12a1 1 0 0 1 1 1v2a1 1 0 0 1-1 1h-12a1 1 0 0 1-1-1zm1 5h12a3 3 0 0 0 3-3v-2a3 3 0 0 0-3-3h-12a3 3 0 0 0-3 3v2a3 3 0 0 0 3 3z"/><path id="wfz0b" d="M319.47 950.32v-3.85h40.6v3.85zm22.23 3.88h-3.87v-1.93h3.87zm-6.76 3.87l2.34-1.94h4.96l2.37 1.95zm-19.34-8.7a.97.97 0 0 1 0-1.94h1.93v1.95h-1.93zm11.6 7.74c0 .53-.44.97-.97.97H306.9a.97.97 0 0 1-.97-.97v-52.2c0-.54.44-.98.97-.98h19.33c.53 0 .97.44.97.97v14.5h-1.93v-.97c0-1.59-1.3-2.89-2.9-2.9h-11.6c-1.6.01-2.9 1.31-2.9 2.9v1.94c0 1.6 1.3 2.9 2.9 2.9h6.76v2.9h-3.86a.97.97 0 0 0 0 1.93h3.86v1.94h-3.86a.97.97 0 0 0 0 1.93h3.86V934a4.83 4.83 0 1 0 0 9.48v2.03h-1.93a2.9 2.9 0 0 0 0 5.8h2.2c.33.58.95.97 1.67.97h7.73zm-9.68-15.65a2.9 2.9 0 1 1 0-5.46zm1.95-22.06c-1.07 0-1.94.86-1.94 1.92h-6.76a.97.97 0 0 1-.97-.96v-1.93c0-.53.44-.96.97-.96h11.6c.53 0 .96.43.96.96v.97zm0 25.13v-9.11V931.01 931 927.15v-.02-4.81-.02-.97h40.6v23.2zm40.6-25.13h-30.94v-14.5c0-1.6-1.3-2.9-2.9-2.9H306.9c-1.6 0-2.9 1.3-2.9 2.9v52.2c0 1.6 1.3 2.9 2.9 2.9h19.34c1.59 0 2.89-1.3 2.9-2.9v-4.83h6.76v2.5l-2.19 1.8c-.62.5-.87 1.36-.6 2.12.25.76.97 1.29 1.8 1.31h9.74c.8-.02 1.52-.55 1.78-1.3.26-.77.02-1.63-.6-2.14l-2.2-1.8v-2.5h16.44c1.06 0 1.93-.86 1.93-1.93v-29c0-1.06-.87-1.93-1.93-1.93z"/><path id="wfz0c" d="M323 926a1 1 0 0 0 .7-.3l1-1a1 1 0 1 0-1.4-1.4l-1 1a1 1 0 0 0 .7 1.7z"/><path id="wfz0d" d="M328.3 923.3l-6 6a1 1 0 1 0 1.4 1.4l6-6a1 1 0 1 0-1.4-1.4z"/></defs><g><g transform="translate(-304 -902)"><g><use fill="#117ed4" xlink:href="#wfz0a"/></g><g><use fill="#117ed4" xlink:href="#wfz0b"/></g><g><use fill="#117ed4" xlink:href="#wfz0c"/></g><g><use fill="#117ed4" xlink:href="#wfz0d"/></g></g></g></svg>