<svg xmlns="http://www.w3.org/2000/svg" xmlns:xlink="http://www.w3.org/1999/xlink" width="49" height="43" viewBox="0 0 49 43"><defs><path id="7frla" d="M1109.5 1335.65l20.93 3.97v1.68h-41.6-.26v-1.68zm19.87 10.8h-39.75v-3.6h39.75zm-42.37-7.47v3.1c0 .42.35.77.78.77h.27v4.38c0 .42.35.77.78.77h41.34c.43 0 .78-.35.78-.77v-4.38h.27c.43 0 .78-.35.78-.77v-6.19a.78.78 0 0 0-.78-.77.78.78 0 0 0-.79.77v2.16l-20.15-3.82v-2.46a.78.78 0 0 0-.78-.77.78.78 0 0 0-.78.77v2.46l-20.15 3.82v-2.16a.78.78 0 0 0-.79-.77.78.78 0 0 0-.78.77v3.09z"/><path id="7frlb" d="M1132.45 1372.48h-45.89v-1.54h7.56c.44 0 .79-.35.79-.77a.78.78 0 0 0-.79-.77h-5.47v-1.54h41.71v1.54h-33.1a.78.78 0 0 0-.79.77c0 .42.35.77.78.77h35.2zm-40.67-20.95h1.56v14.8h-1.56zm8.47 0h1.56v14.8h-1.56zm8.47 0h1.56v14.8h-1.56zm8.47 0h1.56v14.8h-1.56zm8.47 0h1.56v14.8h-1.56zm7.56 17.87h-1.3v-2.3a.77.77 0 0 0-.79-.77h-2.34v-14.8h.26c.43 0 .78-.34.78-.76a.77.77 0 0 0-.78-.77h-5.21a.77.77 0 0 0-.79.77c0 .42.35.76.79.76h.26v14.8h-3.78v-14.8h.26c.43 0 .78-.34.78-.76a.77.77 0 0 0-.78-.77h-5.22a.77.77 0 0 0-.78.77c0 .42.35.76.78.76h.27v14.8h-3.78v-14.8h.26c.43 0 .78-.34.78-.76a.77.77 0 0 0-.78-.77h-5.22a.77.77 0 0 0-.78.77c0 .42.35.76.78.76h.26v14.8h-3.78v-14.8h.27c.43 0 .78-.34.78-.76a.77.77 0 0 0-.78-.77h-5.22a.77.77 0 0 0-.78.77c0 .42.35.76.78.76h.26v14.8h-3.78v-14.8h.26c.44 0 .79-.34.79-.76a.77.77 0 0 0-.79-.77h-5.2a.77.77 0 0 0-.79.77c0 .42.35.76.78.76h.26v14.8h-2.34a.77.77 0 0 0-.78.76v2.3h-1.3a.77.77 0 0 0-.79.77v3.07c0 .43.35.77.78.77h47.44c.43 0 .78-.34.78-.77v-3.07a.77.77 0 0 0-.78-.76z"/></defs><g><g transform="translate(-1085 -1331)"><g><use fill="#117ed4" xlink:href="#7frla"/></g><g><use fill="#117ed4" xlink:href="#7frlb"/></g></g></g></svg>