<svg xmlns="http://www.w3.org/2000/svg" xmlns:xlink="http://www.w3.org/1999/xlink" width="56" height="60" viewBox="0 0 56 60"><defs><path id="zz57a" d="M740.36 1558.07l-18.35-7.14-19.36 7.13a1 1 0 0 0 .7 1.88l18.64-6.87 17.65 6.86a1 1 0 0 0 .72-1.86z"/><path id="zz57b" d="M728 1544h2a1 1 0 1 0 0-2h-2a1 1 0 1 0 0 2z"/><path id="zz57c" d="M723 1544h2a1 1 0 1 0 0-2h-2a1 1 0 1 0 0 2z"/><path id="zz57d" d="M733 1544h2a1 1 0 1 0 0-2h-2a1 1 0 1 0 0 2z"/><path id="zz57e" d="M720 1542h-2a1 1 0 1 0 0 2h2a1 1 0 1 0 0-2z"/><path id="zz57f" d="M715 1542h-2a1 1 0 1 0 0 2h2a1 1 0 1 0 0-2z"/><path id="zz57g" d="M710 1542h-2a1 1 0 1 0 0 2h2a1 1 0 1 0 0-2z"/><path id="zz57h" d="M730.87 1575l-1.74-12.13a2.18 2.18 0 0 0-2.15-1.87h-9.96c-1.08 0-2 .8-2.15 1.87l-1.74 12.13h-4.73c-8.98-8.8-9.5-16.25-9.45-18.29l23.05-8.64 23.05 8.64c.07 2.04-.41 9.43-9.46 18.29zm-15.72 0l1.7-11.85a.18.18 0 0 1 .17-.15h9.97c.09 0 .16.06.17.15l1.7 11.85zM704 1540.88c0-.49.4-.88.88-.88h34.24c.49 0 .88.4.88.88v11.8l-17.35-6.5a1.86 1.86 0 0 0-1.3 0l-17.35 6.5zm14-12.68c0-.66.54-1.2 1.2-1.2h5.6c.66 0 1.2.54 1.2 1.2v9.8h-8zm30 46.8h-9.61c9.82-10.44 8.66-18.79 8.6-19.16l-.1-.57-4.89-1.84v-12.55a2.88 2.88 0 0 0-2.88-2.88H728v-9.8a3.2 3.2 0 0 0-3.2-3.2h-5.6a3.2 3.2 0 0 0-3.2 3.2v9.8h-11.12a2.88 2.88 0 0 0-2.88 2.88v12.55l-4.9 1.84-.09.57c-.06.37-1.22 8.72 8.6 19.16H694a1 1 0 1 0 0 2h54a1 1 0 1 0 0-2z"/><path id="zz57i" d="M737 1579h-29a1 1 0 1 0 0 2h29a1 1 0 1 0 0-2z"/><path id="zz57j" d="M729 1583h-14a1 1 0 1 0 0 2h14a1 1 0 1 0 0-2z"/></defs><g><g transform="translate(-693 -1525)"><g><use fill="#117ed4" xlink:href="#zz57a"/></g><g><use fill="#117ed4" xlink:href="#zz57b"/></g><g><use fill="#117ed4" xlink:href="#zz57c"/></g><g><use fill="#117ed4" xlink:href="#zz57d"/></g><g><use fill="#117ed4" xlink:href="#zz57e"/></g><g><use fill="#117ed4" xlink:href="#zz57f"/></g><g><use fill="#117ed4" xlink:href="#zz57g"/></g><g><use fill="#117ed4" xlink:href="#zz57h"/></g><g><use fill="#117ed4" xlink:href="#zz57i"/></g><g><use fill="#117ed4" xlink:href="#zz57j"/></g></g></g></svg>