<svg xmlns="http://www.w3.org/2000/svg" xmlns:xlink="http://www.w3.org/1999/xlink" width="62" height="62" viewBox="0 0 62 62"><defs><path id="lkkpa" d="M350.28 1152.2c-4.65 0-8.66-1.93-9.53-4.41h19.07c-.87 2.48-4.89 4.42-9.54 4.42zm0-26.56l9.16 20.14h-18.31zm-16.13-10.78l17.21 2.77c.04.01.06.04.06.07v.16c0 .04-.03.07-.07.07h-17.2zm7.63 48.5v.63h-21.56v-.63c0-.5.32-.94.8-1.09l6.92-2.16h6.12l6.92 2.16c.48.15.8.59.8 1.09zm-31.13-45.43a.07.07 0 0 1-.07-.07v-.16c0-.04.02-.06.05-.07l17.22-2.87v3.17zM331 1106a2.21 2.21 0 1 1 0 4.42 2.21 2.21 0 0 1 0-4.42zm-1.14 35.47v-29.2a4.2 4.2 0 0 0 2.28 0v29.2zm3.35 2.09v14.53h-4.42v-14.53c0-.04.03-.07.07-.07h4.28c.04 0 .07.03.07.07zm-21.5 8.64c-4.64 0-8.66-1.94-9.53-4.42h19.07c-.87 2.48-4.88 4.42-9.53 4.42zm0-26.57l9.16 20.14h-18.3zm50.29 21.19v-.05-.07-.04l-.02-.06v-.04l-.01-.04-.02-.06-.01-.03a.95.95 0 0 0-.03-.06v-.01L351.29 1123v-3.06h.06c1.15 0 2.08-.94 2.08-2.08v-.16c0-1.02-.73-1.89-1.75-2.05l-17.53-2.83v-1.8A4.2 4.2 0 0 0 331 1104a4.22 4.22 0 0 0-3.15 7.02v1.7l-17.55 2.93a2.07 2.07 0 0 0-1.73 2.05v.16c0 1.14.93 2.08 2.08 2.08h.06v3.06l-10.62 23.37-.03.07-.01.03-.02.06v.04l-.01.04-.01.06v.1l-.01.01v.08c.07 4.13 5.19 7.36 11.72 7.36s11.65-3.23 11.71-7.36v-.03-.05-.07-.04l-.01-.06v-.04l-.02-.04-.02-.06v-.03a.95.95 0 0 0-.03-.06v-.01L312.71 1123v-3.06h15.13v21.82a2.08 2.08 0 0 0-1.07 1.81v14.8l-6.36 1.98a3.13 3.13 0 0 0-2.2 3v1.65a1 1 0 0 0 1 1h23.56a1 1 0 0 0 1-1v-1.64c0-1.39-.88-2.6-2.2-3l-6.36-2v-14.79c0-.78-.43-1.46-1.07-1.81v-21.82h15.13v3.06l-10.62 23.37-.03.07-.01.03-.02.06-.01.04v.04l-.02.06v.19c.06 4.13 5.18 7.36 11.71 7.36 6.53 0 11.65-3.23 11.72-7.36v-.03z"/></defs><g><g transform="translate(-300 -1104)"><g><use fill="#117ed4" xlink:href="#lkkpa"/></g></g></g></svg>