<svg xmlns="http://www.w3.org/2000/svg" xmlns:xlink="http://www.w3.org/1999/xlink" width="54" height="54" viewBox="0 0 54 54"><defs><path id="h8fya" d="M1134.27 1123.33c0 .48-.4.87-.87.87h-2.62v-1.74h-1.74v3.49h-3.5v-9.6c0-.98-.33-1.88-.89-2.6h4.39v6.97h1.74v-6.98h2.62c.48 0 .87.4.87.87zm-20.93 3.48a2.61 2.61 0 1 1-5.22 0 2.61 2.61 0 0 1 5.22 0zm15.7 10.45h-10.21l-3.46-3.46-2.78 2.78a13.76 13.76 0 0 0-3.59-1.5v-3.92h-6.97v3.93c-1.26.32-2.46.82-3.59 1.49l-2.78-2.78-1.47 1.47v-4.98a6.1 6.1 0 0 0 0-12.2v-.86c0-.48.4-.88.87-.88h4.12l.67-2.01c.12-.36.45-.6.82-.6h.58a4.36 4.36 0 0 0 8.53 0h3.57v9.6a4.31 4.31 0 0 0-2.6-.89 4.36 4.36 0 1 0 4.26 5.23h14.02zm-11.33 1.6l-2.42 2.41.4.6a12.06 12.06 0 0 1 1.77 4.28l.15.7h3.58v3.48h-3.58l-.15.7c-.3 1.52-.9 2.96-1.77 4.28l-.4.6 2.54 2.53-2.46 2.47-2.54-2.54-.6.39a12.05 12.05 0 0 1-4.27 1.78l-.7.14v3.59h-3.49v-3.59l-.7-.14c-1.52-.31-2.96-.91-4.27-1.78l-.6-.4-2.54 2.55-2.46-2.47 2.54-2.54-.4-.6a12.06 12.06 0 0 1-1.77-4.27l-.14-.7h-3.6v-3.49h3.6l.14-.7c.3-1.52.9-2.96 1.78-4.28l.39-.59-2.54-2.54 2.46-2.47 2.54 2.55.6-.4a12.05 12.05 0 0 1 4.28-1.78l.7-.14v-3.59h3.48v3.6l.7.13c1.52.31 2.96.91 4.28 1.78l.59.4 2.54-2.55 2.34 2.34zm-29.61 6.24a4.36 4.36 0 1 1 3.37-7.1l-.74.73 2.78 2.78a13.76 13.76 0 0 0-1.49 3.59zm3.64-15.33c.23.1.47.2.71.26v6.45a6.11 6.11 0 0 0-4.16-1.82 7.9 7.9 0 0 1 3.45-4.89zm-1.9-5.58a4.36 4.36 0 1 1 1.94 3.62l-.03-.04h-.02a4.35 4.35 0 0 1-1.9-3.58zm18.13-10.45a2.6 2.6 0 0 1-2.45 1.74 2.6 2.6 0 0 1-2.46-1.74zm7.13 0h2.63c-.55.73-.9 1.63-.9 2.62 0 2.4 1.96 4.36 4.36 4.36a4.3 4.3 0 0 0 2.62-.9v6.13h-8.71zm6.1 0a2.62 2.62 0 1 1-.01 5.23 2.62 2.62 0 0 1 0-5.23zm12.19-1.74h-32.72c-1.12 0-2.12.72-2.48 1.79l-.27.82h-2.86a2.62 2.62 0 0 0-2.6 2.62v1.12a6.1 6.1 0 0 0-2.29 10.41 9.62 9.62 0 0 0-3.67 6.1 6.1 6.1 0 0 0 1.6 11.98v5.22h3.92c.32 1.26.82 2.47 1.5 3.6l-2.78 2.77 4.92 4.93 2.78-2.78c1.13.67 2.33 1.17 3.6 1.5v3.92h6.96v-3.92c1.26-.33 2.46-.83 3.6-1.5l2.77 2.78 4.93-4.93-2.78-2.77a13.76 13.76 0 0 0 1.5-3.6h3.92v-6.96H1119a13.76 13.76 0 0 0-1.5-3.6l2.51-2.5h10.75v-13.06h2.62a2.62 2.62 0 0 0 2.61-2.62v-8.7a2.62 2.62 0 0 0-2.61-2.62z"/><path id="h8fyb" d="M1087.5 1141.32a.83.83 0 1 1 0-1.65.83.83 0 0 1 0 1.65zm0-3.32a2.5 2.5 0 1 0 0 5 2.5 2.5 0 0 0 0-5z"/><path id="h8fyc" d="M1094.5 1123.67a.83.83 0 1 1 0 1.65.83.83 0 0 1 0-1.65zm0 3.33a2.5 2.5 0 1 0 0-5 2.5 2.5 0 0 0 0 5z"/><path id="h8fyd" d="M1105.5 1140a8.51 8.51 0 1 0 4.54 15.69l-.91-1.44a6.78 6.78 0 0 1-10.43-5.75 6.8 6.8 0 1 1 11.63 4.8l1.2 1.19a8.51 8.51 0 0 0-6.03-14.49z"/><path id="h8fye" d="M1105 1151.32a3.33 3.33 0 1 1 0-6.66 3.33 3.33 0 0 1 0 6.66zm0-8.32a5 5 0 1 0 .01 10.01 5 5 0 0 0-.01-10.01z"/></defs><g><g transform="translate(-1082 -1112)"><g><use fill="#117ed4" xlink:href="#h8fya"/></g><g><use fill="#117ed4" xlink:href="#h8fyb"/></g><g><use fill="#117ed4" xlink:href="#h8fyc"/></g><g><use fill="#117ed4" xlink:href="#h8fyd"/></g><g><use fill="#117ed4" xlink:href="#h8fye"/></g></g></g></svg>