<svg xmlns="http://www.w3.org/2000/svg" xmlns:xlink="http://www.w3.org/1999/xlink" width="57" height="57" viewBox="0 0 57 57"><defs><path id="bs1na" d="M1128.13 1563.48h-24.38v-.96c0-.33-.03-.65-.09-.96h.09c.72 0 1.38-.28 1.88-.74.5.46 1.15.75 1.87.75.72 0 1.38-.3 1.88-.75.5.46 1.15.75 1.87.75.73 0 1.38-.3 1.88-.75.5.46 1.15.75 1.87.75a2.85 2.85 0 0 0 2.82-2.87v-3.83h7.5a2.85 2.85 0 0 1 2.82 2.87zm-25.32-4.78v-3.83c0-.53.42-.96.94-.96s.94.43.94.96v3.83c0 .52-.42.95-.94.95a.95.95 0 0 1-.94-.95zm3.75-3.83c0-.53.42-.96.94-.96s.94.43.94.96v3.83c0 .52-.42.95-.94.95a.95.95 0 0 1-.94-.95zm3.75 0c0-.53.42-.96.94-.96s.94.43.94.96v3.83c0 .52-.42.95-.94.95a.95.95 0 0 1-.94-.95zm3.75 0c0-.53.42-.96.94-.96s.94.43.94.96v3.83c0 .52-.42.95-.94.95a.95.95 0 0 1-.94-.95zm-13.12 2.69a5.5 5.5 0 0 0-2.82-.78.95.95 0 0 0-.93.96v5.74h-7.5a2.84 2.84 0 0 1-2.82-2.87v-5.74h14.07zm24.37-4.6h-8.23a2.77 2.77 0 0 0-2.08-.96c-.72 0-1.38.29-1.88.75a2.76 2.76 0 0 0-1.87-.75c-.72 0-1.38.29-1.88.75a2.76 2.76 0 0 0-1.87-.75c-.72 0-1.38.29-1.88.75a2.76 2.76 0 0 0-1.87-.75c-.83 0-1.57.37-2.08.96h-15.73a.95.95 0 0 0-.94.95v6.7c0 2.64 2.1 4.78 4.69 4.78h7.5v4.78c0 .26.1.5.27.68l1.6 1.63v1.52h1.88v-1.91c0-.26-.1-.5-.28-.68l-1.6-1.63v-10.96a3.82 3.82 0 0 1 2.82 3.7v4.78h1.87v-1.9h12.19v8.6h1.87v-8.6h11.25c.52 0 .94-.44.94-.97v-6.7c0-2.63-2.1-4.77-4.69-4.77z"/><path id="bs1nb" d="M1133.15 1545.95l-.84-1.66.84-1.66.84 1.66zm-25.65-14.85l-23.76-6.1 23.76-6.09 23.77 6.1zm13.3 10.58l-6.36 1.57-2.4-2.37c.13-.41.21-.84.21-1.3 0-2.59-2.13-4.7-4.75-4.7a4.73 4.73 0 0 0-4.75 4.7c0 .46.08.89.2 1.3l-2.4 2.37-6.35-1.57v-12.06l13.06 3.35a.97.97 0 0 0 .48 0l13.06-3.35zm-9.5 3.56v.56l-1.9-1.9c.67-.29 1.24-.74 1.71-1.29l1.7 1.69h-.55a.95.95 0 0 0-.95.94zm-6.65-5.65a2.84 2.84 0 0 1 2.85-2.83 2.84 2.84 0 0 1 2.85 2.83 2.84 2.84 0 0 1-2.85 2.82 2.84 2.84 0 0 1-2.85-2.82zm-.95 6.2v-.55a.95.95 0 0 0-.95-.94h-.56l1.7-1.69c.47.55 1.05 1 1.73 1.3zm32.2-1.92l-1.8-3.56v-14.1l1.19-.3a.94.94 0 0 0 0-1.82l-27.55-7.06a.97.97 0 0 0-.48 0l-27.55 7.06a.94.94 0 0 0-.71.91c0 .43.3.8.71.91l12.59 3.23v13.27c0 .43.3.81.72.91l6.03 1.5a.93.93 0 0 0-.03.77c.15.36.5.59.88.59h1.9v1.88a.94.94 0 0 0 .95.94c.25 0 .49-.1.67-.28l4.08-4.04 4.08 4.04a.95.95 0 0 0 1.62-.66v-1.88h1.9c.38 0 .73-.23.88-.58a.93.93 0 0 0-.03-.78l6.03-1.5c.42-.1.72-.48.72-.9v-13.28l9.5-2.44v13.6l-1.8 3.57a.93.93 0 0 0 0 .85l1.9 3.76a.95.95 0 0 0 1.7 0l1.9-3.77a.93.93 0 0 0 0-.84z"/><path id="bs1nc" d="M1085 1551v-2h2v2z"/><path id="bs1nd" d="M1088 1551v-2h2v2z"/><path id="bs1ne" d="M1093 1551v-2h2v2z"/></defs><g><g transform="translate(-1079 -1517)"><g><use fill="#117ed4" xlink:href="#bs1na"/></g><g><use fill="#117ed4" xlink:href="#bs1nb"/></g><g><use fill="#117ed4" xlink:href="#bs1nc"/></g><g><use fill="#117ed4" xlink:href="#bs1nd"/></g><g><use fill="#117ed4" xlink:href="#bs1ne"/></g></g></g></svg>