<svg xmlns="http://www.w3.org/2000/svg" xmlns:xlink="http://www.w3.org/1999/xlink" width="65" height="65" viewBox="0 0 65 65"><defs><path id="g126a" d="M338.12 1549.45c.2.35.58.55.97.55.17 0 .34-.04.5-.1.06-.04 6.48-3.03 9.65-3.95.57-.16.9-.72.7-1.25-.17-.53-.78-.82-1.36-.65-3.34.96-9.71 3.93-9.98 4.06-.54.25-.75.85-.48 1.34z"/><path id="g126b" d="M339.1 1537c.16 0 .33-.04.49-.1.06-.04 6.48-3.03 9.65-3.95.57-.16.9-.72.7-1.25-.17-.53-.78-.82-1.36-.65-3.34.96-9.71 3.93-9.98 4.06-.54.25-.75.85-.48 1.34.2.35.58.55.97.55z"/><path id="g126c" d="M364.92 1535.25c-.6 0-1.09.49-1.09 1.08v42.25c0 1.8-1.45 3.25-3.25 3.25h-26v-2.49c1.58-.55 5.7-1.84 9.75-1.84 9.44 0 15.85 2.09 15.91 2.11a1.09 1.09 0 0 0 1.43-1.03v-47.66c0-.51-.36-.95-.85-1.06 0 0-.85-.19-2.3-.46a1.08 1.08 0 0 0-.4 2.13l1.38.27v45.34a61.18 61.18 0 0 0-15.17-1.8c-4.72 0-9.35 1.54-10.79 2.07a25.38 25.38 0 0 0-9.79-2.08 73 73 0 0 0-16.25 1.86v-45.43a71.3 71.3 0 0 1 16.25-1.93c3.95 0 7.34 1.23 8.67 1.79v42.63a1.08 1.08 0 0 0 1.64.93c.1-.07 10.84-6.48 20.37-9.65.44-.15.74-.56.74-1.03v-44.42a1.08 1.08 0 0 0-1.47-1.01c-8.67 3.25-17.44 8.7-17.52 8.76a1.08 1.08 0 0 0 1.14 1.84c.08-.05 7.71-4.8 15.68-8v42.05c-7.4 2.57-15.12 6.77-18.42 8.65v-41.45c0-.41-.23-.79-.6-.97-.18-.1-4.62-2.28-10.23-2.28a70.31 70.31 0 0 0-17.63 2.2c-.47.14-.79.56-.79 1.05v47.66a1.09 1.09 0 0 0 1.38 1.04c.08-.02 7.57-2.12 17.04-2.12 3.96 0 7.34 1.23 8.67 1.79v2.54h-26a3.25 3.25 0 0 1-3.25-3.25v-42.25a1.08 1.08 0 0 0-2.17 0v42.25a5.42 5.42 0 0 0 5.42 5.42h54.16a5.42 5.42 0 0 0 5.42-5.42v-42.25c0-.6-.48-1.08-1.08-1.08z"/><path id="g126d" d="M338.12 1543.45c.2.35.58.55.97.55.17 0 .34-.04.5-.1.06-.04 6.48-3.03 9.65-3.95.57-.16.9-.72.7-1.25-.17-.53-.78-.82-1.36-.65-3.34.96-9.71 3.93-9.98 4.06-.54.25-.75.85-.48 1.34z"/><path id="g126e" d="M338.12 1555.45c.2.35.58.55.97.55.17 0 .34-.04.5-.1.06-.04 6.48-3.03 9.65-3.95.57-.16.9-.72.7-1.25-.17-.53-.78-.82-1.36-.65-3.34.96-9.71 3.93-9.98 4.06-.54.25-.75.85-.48 1.34z"/><path id="g126f" d="M327.18 1538.55c-6.59-1.45-14.07.4-14.39.48-.57.14-.9.7-.75 1.23.12.45.56.74 1.03.74l.27-.03c.07-.02 7.28-1.8 13.35-.47.57.13 1.15-.2 1.28-.74.14-.54-.22-1.08-.8-1.2z"/><path id="g126g" d="M327.18 1545.55c-6.59-1.45-14.07.4-14.39.48-.57.14-.9.7-.75 1.23.12.45.56.74 1.03.74l.27-.03c.07-.02 7.28-1.8 13.35-.47.57.13 1.15-.2 1.28-.74.14-.54-.22-1.08-.8-1.2z"/><path id="g126h" d="M338.12 1562.45c.2.35.58.55.97.55.17 0 .34-.04.5-.1.06-.04 6.48-3.03 9.65-3.95.57-.16.9-.72.7-1.25-.17-.53-.78-.82-1.36-.65-3.34.96-9.71 3.93-9.98 4.06-.54.25-.75.85-.48 1.34z"/><path id="g126i" d="M327.18 1551.55c-6.59-1.45-14.07.4-14.39.48-.57.14-.9.7-.75 1.23.12.44.56.74 1.03.74.09 0 .18-.01.27-.04.07-.01 7.28-1.8 13.35-.46.57.13 1.15-.2 1.28-.74.14-.54-.22-1.08-.8-1.2z"/><path id="g126j" d="M327.18 1565.55c-6.59-1.45-14.07.4-14.39.48-.57.14-.9.7-.75 1.23.12.44.56.74 1.03.74.09 0 .18-.01.27-.04.07-.01 7.28-1.8 13.35-.46.57.13 1.15-.2 1.28-.74.14-.54-.22-1.08-.8-1.2z"/><path id="g126k" d="M327.18 1558.55c-6.59-1.45-14.07.4-14.39.48-.57.14-.9.7-.75 1.23.12.44.56.74 1.03.74.09 0 .18-.01.27-.04.07-.01 7.28-1.8 13.35-.46.57.13 1.15-.2 1.28-.74.14-.54-.22-1.08-.8-1.2z"/></defs><g><g transform="translate(-301 -1519)"><g><use fill="#117ed4" xlink:href="#g126a"/></g><g><use fill="#117ed4" xlink:href="#g126b"/></g><g><use fill="#117ed4" xlink:href="#g126c"/></g><g><use fill="#117ed4" xlink:href="#g126d"/></g><g><use fill="#117ed4" xlink:href="#g126e"/></g><g><use fill="#117ed4" xlink:href="#g126f"/></g><g><use fill="#117ed4" xlink:href="#g126g"/></g><g><use fill="#117ed4" xlink:href="#g126h"/></g><g><use fill="#117ed4" xlink:href="#g126i"/></g><g><use fill="#117ed4" xlink:href="#g126j"/></g><g><use fill="#117ed4" xlink:href="#g126k"/></g></g></g></svg>