<svg xmlns="http://www.w3.org/2000/svg" xmlns:xlink="http://www.w3.org/1999/xlink" width="28" height="52" viewBox="0 0 28 52"><defs><path id="ze81a" d="M331.83 1363.71l4.52-3 2.17 7.45zm-7.6-5.03l1.03-3.49h9.47l1.02 3.5-5.76 3.81zm-2.76 9.48l2.17-7.45 4.52 3zm5.79-19.81h5.47l1.41 4.82h-8.3zm2.73-9.39l2.15 7.37h-4.3zm-1.65-6.27c0-.92.74-1.67 1.65-1.67a1.67 1.67 0 1 1 0 3.34c-.91 0-1.65-.75-1.65-1.67zm13.62 40.02l-4.05-13.88-1.45-4.95-2-6.84-3.18-10.89A3.7 3.7 0 0 0 330 1329a3.69 3.69 0 0 0-1.28 7.15l-6.62 22.68-4.06 13.88a1 1 0 0 0 1.93.57l.62-2.12 9.41-6.24 9.41 6.24.62 2.11a1 1 0 1 0 1.93-.56z"/><path id="ze81b" d="M324.72 1327.72c.37-.4.37-1.03 0-1.43a.9.9 0 0 0-1.32 0 9.23 9.23 0 0 0 0 12.42c.18.2.42.29.66.29a.9.9 0 0 0 .66-.3c.37-.39.37-1.02 0-1.42a7.12 7.12 0 0 1 0-9.56z"/><path id="ze81c" d="M335.6 1326.3a.9.9 0 0 0-1.32 0c-.37.39-.37 1.02 0 1.42a7.12 7.12 0 0 1 0 9.56c-.37.4-.37 1.03 0 1.43.18.2.42.29.66.29a.9.9 0 0 0 .66-.3 9.23 9.23 0 0 0 0-12.4z"/><path id="ze81d" d="M321.7 1323.78a1.04 1.04 0 0 0-1.48-1.47 14.33 14.33 0 0 0-4.22 10.19c0 3.85 1.5 7.47 4.22 10.2a1.04 1.04 0 0 0 1.47 0c.41-.41.41-1.07 0-1.48a12.35 12.35 0 0 1 0-17.44z"/><path id="ze81e" d="M341.87 1324.48c-.3-.47-.95-.62-1.44-.33a1 1 0 0 0-.34 1.4c3 4.73 2.27 10.78-1.78 14.72a1 1 0 0 0 0 1.43 1.06 1.06 0 0 0 1.47 0 13.72 13.72 0 0 0 2.09-17.22z"/><path id="ze81f" d="M339 1322c-1.33 0-1.33 2 0 2s1.33-2 0-2z"/></defs><g><g transform="translate(-316 -1322)"><g><use fill="#117ed4" xlink:href="#ze81a"/></g><g><use fill="#117ed4" xlink:href="#ze81b"/></g><g><use fill="#117ed4" xlink:href="#ze81c"/></g><g><use fill="#117ed4" xlink:href="#ze81d"/></g><g><use fill="#117ed4" xlink:href="#ze81e"/></g><g><use fill="#117ed4" xlink:href="#ze81f"/></g></g></g></svg>