<svg xmlns="http://www.w3.org/2000/svg" xmlns:xlink="http://www.w3.org/1999/xlink" width="59" height="59" viewBox="0 0 59 59"><defs><path id="ripra" d="M1125.33 905.88c-.86 0-1.55-.7-1.55-1.57 0-.86.7-1.56 1.55-1.56a1.56 1.56 0 1 1 0 3.13zm-9.57 6.14a3.23 3.23 0 0 0-4.33.48l-5.84-3.52.05-.3h13.73zm-1.9 4.25a1.56 1.56 0 1 1 0-3.13c.86 0 1.55.7 1.55 1.57 0 .86-.7 1.56-1.55 1.56zm-11.46-6.48c-.86 0-1.56-.7-1.56-1.57 0-.86.7-1.56 1.56-1.56a1.56 1.56 0 1 1 0 3.13zm-12.06 10.86c-.85 0-1.55-.71-1.55-1.58 0-.86.7-1.57 1.55-1.57.86 0 1.55.7 1.55 1.57 0 .87-.7 1.58-1.55 1.58zm45.07-13.72h-8.07a3.32 3.32 0 0 0-2.01-5.93 3.3 3.3 0 0 0-2.9 4.86l-1.16 1.07h-15.86a3.28 3.28 0 0 0-3.01-2.02c-1.36 0-2.52.83-3.02 2.02h-17.79a2.61 2.61 0 0 0-2.59 2.62V916c0 .48.39.87.86.87.48 0 .87-.4.87-.87v-6.45c0-.48.39-.88.86-.88h17.56c.04.34.14.66.27.95l-7.29 6.68a3.24 3.24 0 0 0-1.79-.54 3.3 3.3 0 0 0-3.28 3.3 3.3 3.3 0 0 0 3.28 3.32 3.3 3.3 0 0 0 2.94-4.78l7.26-6.64a3.24 3.24 0 0 0 4.22-.44l5.89 3.53a3.3 3.3 0 0 0 3.21 3.97 3.3 3.3 0 0 0 3-4.65l5.08-4.7h13.47c.47 0 .86.4.86.88v21.58a.87.87 0 0 0 1.73 0v-21.58a2.61 2.61 0 0 0-2.6-2.62z"/><path id="riprb" d="M1135.4 949.04h-53.8a.87.87 0 0 1-.87-.88v-5.46h55.54v5.46c0 .48-.39.88-.86.88zm-33.62 6.12l.49-4.37h12.45l.5 4.37zm18.41 1.76v1.31h-23.4v-1.31zm-31.19-19.6h4.79v3.6H1089zm0-3.59h4.79v1.83H1089zm0-3.63h4.79v1.86H1089zm11.47-5.88v-1.83h4.77v1.83zm0-3.6v-1.86h4.77v1.86zm11.47 16.7h4.77v3.6h-4.77zm0-3.59h4.77v1.83h-4.77zm0-3.63h4.77v1.86h-4.77zm11.46-9.12h4.79v19.93h-4.79zm0-3.59h4.79v1.83h-4.79zm0-3.63h4.79v1.88h-4.79zm14.6 20.54a.87.87 0 0 0-.86-.88c-.48 0-.87.4-.87.88v6.61h-6.36v-28.03a.87.87 0 0 0-.87-.88h-6.5c-.48 0-.87.4-.87.88v28.03h-3.23v-11.7a.87.87 0 0 0-.87-.87h-6.5c-.48 0-.86.4-.86.88v11.7h-3.24v-23.04a.87.87 0 0 0-.86-.88h-6.5c-.48 0-.87.4-.87.88V930c0 .49.39.88.86.88.48 0 .87-.4.87-.88v-4.03h4.77v14.93h-4.77v-7.38a.87.87 0 0 0-.87-.88c-.47 0-.86.4-.86.88v7.38h-3.23v-11.7a.87.87 0 0 0-.87-.87h-6.5c-.48 0-.87.4-.87.88v11.7h-6.54v-21.84a.87.87 0 0 0-.87-.88c-.47 0-.86.4-.86.88v29.08a2.62 2.62 0 0 0 2.6 2.63h18.93l-.5 4.37h-4.1c-.48 0-.86.4-.86.88v3.08c0 .49.38.88.86.88h25.14c.48 0 .86-.4.86-.88v-3.08a.87.87 0 0 0-.86-.88h-4.1l-.5-4.37h18.94c1.43 0 2.59-1.18 2.59-2.63v-6.35-7.51z"/></defs><g><g transform="translate(-1079 -901)"><g><use fill="#117ed4" xlink:href="#ripra"/></g><g><use fill="#117ed4" xlink:href="#riprb"/></g></g></g></svg>