<svg xmlns="http://www.w3.org/2000/svg" xmlns:xlink="http://www.w3.org/1999/xlink" width="158.87" height="33" viewBox="0 0 158.87 33"><defs><path id="hilyb" d="M263 65.5a1.5 1.5 0 1 1 3 0 1.5 1.5 0 0 1-3 0"/><path id="hilyc" d="M255 41.56a5.45 5.45 0 1 0 .02 10.9 5.45 5.45 0 0 0-.01-10.9M255 54a7 7 0 1 1 .02-14.02A7 7 0 0 1 255 54"/><path id="hilyd" d="M259 47a4 4 0 1 1-8 0 4 4 0 0 1 8 0"/><path id="hilye" d="M254.83 44.11c.38.26.1.86-.64 1.35-.74.49-1.64.68-2.02.43-.38-.26-.1-.86.64-1.35.74-.49 1.64-.68 2.02-.43"/><path id="hilyf" d="M262.55 66.74c-3.23 2.6-10.57 7.65-15.44 4.62a4.92 4.92 0 0 1-2.3-3.38c-1.14-5.93 5.79-15.48 5.86-15.57l-.55-.41c-.3.4-7.18 9.89-5.98 16.11a5.58 5.58 0 0 0 2.61 3.84c1.2.74 2.5 1.05 3.86 1.05 4.66 0 9.82-3.64 12.39-5.72a2.19 2.19 0 0 1-.45-.54"/><path id="hilyg" d="M240.32 66h-13.06a5.24 5.24 0 0 1-5.26-5.2c0-2.87 2.36-5.2 5.26-5.2h8.48c1.9 0 3.44-1.53 3.44-3.4 0-1.88-1.54-3.4-3.44-3.4H222.9V47h12.83c2.9 0 5.26 2.33 5.26 5.2s-2.36 5.2-5.26 5.2h-8.48a3.43 3.43 0 0 0-3.44 3.4c0 1.88 1.54 3.4 3.44 3.4h13.06z"/><path id="hilyh" d="M180.46 48.8H194V47h-13.54c-3.01 0-5.46 2.33-5.46 5.2 0 1.79.95 3.36 2.4 4.3a5.14 5.14 0 0 0-2.4 4.3c0 2.87 2.45 5.2 5.46 5.2H194v-1.8h-13.54a3.5 3.5 0 0 1-3.57-3.4 3.5 3.5 0 0 1 3.57-3.4H194v-1.8h-13.54a3.5 3.5 0 0 1-3.57-3.4 3.5 3.5 0 0 1 3.57-3.4"/><path id="hilyi" d="M172 66h-9.03c-5.5 0-9.97-4.26-9.97-9.5s4.47-9.5 9.97-9.5H172v1.8h-9.03c-4.46 0-8.08 3.45-8.08 7.7s3.62 7.7 8.08 7.7H172z"/><path id="hilyj" d="M200.9 64.2v-6.8h12.63a3.5 3.5 0 0 1 3.59 3.4 3.5 3.5 0 0 1-3.59 3.4zm0-15.4h8.1a3.5 3.5 0 0 1 3.58 3.4 3.5 3.5 0 0 1-3.58 3.4h-8.1zm12.23 6.8a5.03 5.03 0 0 0 1.34-3.4c0-2.87-2.45-5.2-5.47-5.2h-10v19h14.53a5.35 5.35 0 0 0 5.47-5.2c0-2.87-2.46-5.2-5.47-5.2z"/><path id="hilyk" d="M271.9 55.61h12.63a3.5 3.5 0 0 0 3.59-3.4 3.5 3.5 0 0 0-3.59-3.4H271.9zm0 10.39H270V47h14.53a5.35 5.35 0 0 1 5.47 5.2c0 2.88-2.46 5.21-5.47 5.21h-12.64z"/><path id="hilyl" d="M263.1 47v3.17c0 4.25-3.63 7.7-8.1 7.7s-8.1-3.45-8.1-7.7V47H245v3.17c0 4.92 3.95 8.97 9 9.45V66h2v-6.38c5.05-.48 9-4.53 9-9.45V47z"/><path id="hilya" d="M311.87 67V47.08h-19.53v19.9z"/><path id="hilyn" d="M310.03 47.09v3.33a8 8 0 0 1-7.92 8.06 8 8 0 0 1-7.92-8.06v-3.33h-1.85v3.33a9.9 9.9 0 0 0 8.78 9.9v6.67h1.97v-6.68a9.9 9.9 0 0 0 8.78-9.9V47.1z"/><clipPath id="hilym"><use xlink:href="#hilya"/></clipPath></defs><g><g transform="translate(-153 -40)"><g><use fill="#fff" xlink:href="#hilyb"/></g><g><use fill="#fff" xlink:href="#hilyc"/></g><g><use fill="#fff" xlink:href="#hilyd"/></g><g><use fill="#fff" xlink:href="#hilye"/></g><g><use fill="#fff" xlink:href="#hilyf"/></g><g><use fill="#fff" xlink:href="#hilyg"/></g><g><use fill="#fff" xlink:href="#hilyh"/></g><g><use fill="#fff" xlink:href="#hilyi"/></g><g><use fill="#fff" xlink:href="#hilyj"/></g><g><use fill="#fff" xlink:href="#hilyk"/></g><g><use fill="#fff" xlink:href="#hilyl"/></g><g><g/><g clip-path="url(#hilym)"><use fill="#fff" xlink:href="#hilyn"/></g></g></g></g></svg>